<!--?xml version="1.0" encoding="utf-8"?-->
<!-- Generator: Adobe Illustrator 15.1.0, SVG Export Plug-In . SVG Version: 6.00 Build 0)  -->

<svg version="1.1" id="_x32_" xmlns="http://www.w3.org/2000/svg" xmlns:xlink="http://www.w3.org/1999/xlink" x="0px" y="0px" width="512px" height="512px" viewBox="0 0 512 512" style="width: 64px; height: 64px; opacity: 1;" xml:space="preserve">
<style type="text/css">

	.st0{fill:#4B4B4B;}

</style>
<g>
	<path class="st0" d="M492.313,279.75c-2.266-3.938-5.172-7.547-9.844-10.484l-0.688-0.406l-0.734-0.344l-159.593-74.484V79.5
		c-0.078-18.297-6.203-36.922-17.063-52.125c-5.469-7.578-12.188-14.297-20.328-19.281C275.954,3.125,266.313-0.016,256,0
		c-10.328-0.016-19.969,3.125-28.078,8.094c-12.188,7.5-21.266,18.781-27.563,31.266c-6.266,12.516-9.797,26.406-9.828,40.141
		v114.531L30.188,268.859l-0.688,0.422c-4.672,2.938-7.547,6.547-9.828,10.484c-2.172,3.984-3.766,8.328-3.828,13.859v53.484
		c-0.047,4.734,1.578,10.016,5.328,14.031c3.672,4.063,9.266,6.281,14.359,6.203c2.094,0,4.063-0.359,5.922-0.891v0.031
		l159.438-41.656v86.438c-9.281,6.734-27.656,19.984-39.734,28.047c-5.438,3.594-9.703,8.328-12.438,13.547
		c-2.766,5.219-4.031,10.828-4.016,16.172c0.031,7.656,2.438,14.875,7.078,20.813c2.344,2.953,5.313,5.578,8.922,7.516
		c3.609,1.922,7.891,3.094,12.328,3.094c10.563,0,44.234,0,58.328,0c0.766,0.734,1.547,1.484,2.469,2.281
		c2.328,1.984,5.172,4.125,8.781,5.922c3.578,1.781,8.047,3.328,13.391,3.344c5.328-0.016,9.797-1.563,13.375-3.344
		c5.016-2.531,8.594-5.625,11.281-8.203c14.094,0,47.75,0,58.313,0c4.422,0,8.703-1.172,12.313-3.094
		c5.438-2.922,9.375-7.313,12-12.188c2.609-4.891,4-10.391,4.016-16.141c0-5.344-1.25-10.953-4.016-16.172
		c-2.75-5.219-7.016-9.969-12.438-13.563l-0.484-0.328c-8.344-5.563-19.547-13.5-28.688-20.063
		c-4.141-2.969-7.719-5.563-10.578-7.641v-86.438l159.437,41.656v-0.031c1.906,0.547,3.891,0.891,5.922,0.891
		c5.094,0.063,10.688-2.141,14.359-6.203c3.75-4.016,5.375-9.297,5.344-14.031v-53.484C496.094,288.094,494.5,283.75,492.313,279.75
		z M467.203,335.703l-185.046-48.359v138.609l5.922,4.344c0.094,0.063,28.891,21.219,46.703,33.094l0.031,0.016
		c1.672,1.141,2.406,2.125,2.875,2.984c0.469,0.875,0.656,1.734,0.656,2.641c0.031,1.047-0.328,1.969-0.641,2.469
		c-7.281,0-22.422,0-36.141,0c-14.484,0-27.25,0-27.281,0h-7.234l-4.344,5.781c-0.188,0.266-1.859,2.266-3.766,3.813
		c-0.969,0.813-2,1.453-2.641,1.75l-0.313,0.125c-0.656-0.25-2.578-1.391-4.047-2.859c-0.875-0.813-1.641-1.641-2.109-2.188
		l-0.516-0.609l-0.016-0.031l-0.063-0.063l-4.281-5.719h-7.234c0,0-48.422,0-63.438,0c-0.281-0.484-0.688-1.359-0.641-2.469
		c0.016-0.891,0.203-1.766,0.656-2.641c0.484-0.875,1.219-1.859,2.906-3c17.828-11.875,46.625-33.031,46.734-33.094l5.906-4.344
		V287.359L44.782,335.703v-41.469l0.172-0.313l174.516-81.469V79.5c-0.078-11.453,4.406-25.344,11.609-35.219
		c3.578-4.969,7.719-8.922,11.938-11.484c4.25-2.578,8.422-3.844,12.984-3.859c4.547,0.016,8.734,1.281,12.969,3.859
		c6.328,3.813,12.484,10.906,16.797,19.547c4.344,8.578,6.781,18.578,6.75,27.156v132.953l174.531,81.469l0.156,0.266V335.703z" style="fill: rgb(75, 75, 75);"></path>
</g>
</svg>
